HIERARCHY
ROOT Pelvis
{
	OFFSET 0.000000 0.000000 0.000000
	CHANNELS 6 Xposition Yposition Zposition Xrotation Yrotation Zrotation
	JOINT LeftUpLeg_virtual
	{
		OFFSET 0.000000 0.000000 0.000000
		CHANNELS 3 Xrotation Yrotation Zrotation
		JOINT LeftUpLeg
		{
			OFFSET 18.735201 -5.666702 -4.541200
			CHANNELS 3 Xrotation Yrotation Zrotation
			JOINT LeftLeg
			{
				OFFSET -0.021200 -31.938179 0.493100
				CHANNELS 3 Xrotation Yrotation Zrotation
				JOINT LeftFoot
				{
					OFFSET 0.021200 -31.938179 -4.336299
					CHANNELS 3 Xrotation Yrotation Zrotation
					JOINT LeftToeBase
					{
						OFFSET 0.943001 -26.722000 15.023500
						CHANNELS 3 Xrotation Yrotation Zrotation
						End Site
						{
							OFFSET 0 0 0
						}
					}
				}
			}
		}
	}
	JOINT RightUpLeg_virtual
	{
		OFFSET 0.000000 0.000000 0.000000
		CHANNELS 3 Xrotation Yrotation Zrotation
		JOINT RightUpLeg
		{
			OFFSET -18.735201 -5.666702 -4.541200
			CHANNELS 3 Xrotation Yrotation Zrotation
			JOINT RightLeg
			{
				OFFSET 0.018946 -31.938133 0.493100
				CHANNELS 3 Xrotation Yrotation Zrotation
				JOINT RightFoot
				{
					OFFSET -0.018946 -31.938126 -4.336299
					CHANNELS 3 Xrotation Yrotation Zrotation
					JOINT RightToeBase
					{
						OFFSET -0.943001 -26.722004 15.023500
						CHANNELS 3 Xrotation Yrotation Zrotation
						End Site
						{
							OFFSET 0 0 0
						}
					}
				}
			}
		}
	}
	JOINT Hips_virtual
	{
		OFFSET 0.000000 0.000000 0.000000
		CHANNELS 3 Xrotation Yrotation Zrotation
		JOINT Hips
		{
			OFFSET -0.000000 -0.000000 -0.000000
			CHANNELS 3 Xrotation Yrotation Zrotation
			JOINT Spine
			{
				OFFSET 0.000000 10.199997 -0.299500
				CHANNELS 3 Xrotation Yrotation Zrotation
				JOINT Spine1
				{
					OFFSET 0.000000 11.900002 -1.516600
					CHANNELS 3 Xrotation Yrotation Zrotation
					JOINT Spine2
					{
						OFFSET 0.000000 13.600006 -2.842500
						CHANNELS 3 Xrotation Yrotation Zrotation
						JOINT Neck_virtual
						{
							OFFSET 0.000000 0.000000 0.000000
							CHANNELS 3 Xrotation Yrotation Zrotation
							JOINT Neck
							{
								OFFSET 0.000000 9.624100 -2.890100
								CHANNELS 3 Xrotation Yrotation Zrotation
								JOINT Head
								{
									OFFSET 0.000000 14.068802 -1.351900
									CHANNELS 3 Xrotation Yrotation Zrotation
									End Site
									{
										OFFSET 0 0 0
									}
								}
							}
						}
						JOINT LeftShoulder_virtual
						{
							OFFSET 0.000000 0.000000 0.000000
							CHANNELS 3 Xrotation Yrotation Zrotation
							JOINT LeftShoulder
							{
								OFFSET 15.263000 10.923401 -0.547700
								CHANNELS 3 Xrotation Yrotation Zrotation
								JOINT LeftArm
								{
									OFFSET 25.438599 -2.830597 -13.032500
									CHANNELS 3 Xrotation Yrotation Zrotation
									JOINT LeftForeArm
									{
										OFFSET 29.960503 0.000000 0.000000
										CHANNELS 3 Xrotation Yrotation Zrotation
										JOINT LeftHand
										{
											OFFSET 27.849251 0.000000 0.000000
											CHANNELS 3 Xrotation Yrotation Zrotation
											End Site
											{
												OFFSET 0 0 0
											}
										}
									}
								}
							}
						}
						JOINT RightShoulder_virtual
						{
							OFFSET 0.000000 0.000000 0.000000
							CHANNELS 3 Xrotation Yrotation Zrotation
							JOINT RightShoulder
							{
								OFFSET -15.263000 10.923401 -0.547700
								CHANNELS 3 Xrotation Yrotation Zrotation
								JOINT RightArm
								{
									OFFSET -25.438599 -2.830597 -13.032500
									CHANNELS 3 Xrotation Yrotation Zrotation
									JOINT RightForeArm
									{
										OFFSET -29.960503 0.000000 0.000000
										CHANNELS 3 Xrotation Yrotation Zrotation
										JOINT RightHand
										{
											OFFSET -27.849251 0.000000 0.000000
											CHANNELS 3 Xrotation Yrotation Zrotation
											End Site
											{
												OFFSET 0 0 0
											}
										}
									}
								}
							}
						}
					}
				}
			}
		}
	}
}
MOTION
Frames: 5
Frame Time: 0.03333333
0.664413 78.638565 -2.439056 0.000000 0.000000 0.000000 -10.346939 4.235638 0.364823 -39.825812 -6.090065 16.304534 75.716048 -1.929250 0.243424 -24.762578 -2.829844 -14.020899 0.000000 0.000000 0.000000 -10.346939 4.235638 0.364823 -32.558494 -3.239028 -22.169225 77.158393 1.689340 -0.353483 -32.132724 -3.575574 13.731947 0.000000 0.000000 0.000000 -10.346939 4.235638 0.364823 0.000000 0.000000 0.000000 24.172956 0.111316 0.894335 14.300669 -0.000462 0.896335 0.000000 0.000000 0.000000 14.301752 -0.006504 0.892861 3.779244 -0.172398 -0.271643 0.000000 0.000000 0.000000 14.301752 -0.006504 0.892861 1.369045 -20.607345 -8.030735 -26.870570 1.825422 -58.552022 -139.815379 -76.593694 -137.273743 0.000000 0.000000 0.000000 14.301752 -0.006504 0.892861 4.241955 6.025676 23.458807 -22.328980 30.789899 40.151352 -101.532408 65.933804 95.052471 0.000000 0.000000 0.000000 
0.584307 79.158318 -1.904718 0.000000 0.000000 0.000000 -11.643227 4.205876 0.346039 -37.135643 -6.144025 16.411029 74.830255 -1.966064 0.236349 -25.217233 -2.444750 -14.190721 0.000000 0.000000 0.000000 -11.643227 4.205876 0.346039 -29.901158 -3.768743 -21.868729 75.942537 1.645896 -0.345650 -32.358673 -3.647117 13.702831 0.000000 0.000000 0.000000 -11.643227 4.205876 0.346039 0.000001 0.000000 0.000000 23.956305 0.086081 0.833559 13.992116 -0.012110 0.874928 0.000000 0.000000 0.000000 13.993085 -0.019271 0.870005 3.421878 -0.204106 -0.250901 0.000000 0.000000 0.000000 13.993085 -0.019271 0.870005 1.274360 -20.464773 -8.784592 -24.361975 0.125574 -58.409531 -134.037135 -77.572453 -130.766294 0.000000 0.000000 0.000000 13.993085 -0.019271 0.870005 4.281750 6.062522 24.486797 -20.183595 30.544015 38.966919 -101.168564 66.637375 94.218655 0.000000 0.000000 0.000000 
0.478187 79.755890 -1.367811 0.000000 0.000000 0.000000 -12.400175 4.261243 0.336414 -34.902280 -6.160353 16.452964 73.543188 -1.934293 0.230246 -25.374942 -2.147825 -14.367843 0.000000 0.000000 0.000000 -12.400175 4.261243 0.336414 -27.694201 -4.387200 -21.548832 74.446849 1.624990 -0.335057 -32.410624 -3.779507 13.591837 0.000000 0.000000 0.000000 -12.400175 4.261243 0.336414 0.000001 -0.000001 0.000000 23.645234 0.052605 0.807724 13.485199 -0.074092 0.867700 0.000000 0.000000 0.000000 13.486087 -0.083624 0.864977 3.009986 -0.222181 -0.283306 0.000000 0.000000 0.000000 13.486087 -0.083624 0.864977 1.157235 -20.150262 -9.778062 -22.947110 -1.113763 -58.002909 -128.515992 -78.463874 -124.614752 0.000000 0.000000 0.000000 13.486087 -0.083624 0.864977 4.416291 5.793504 25.390707 -17.739857 29.670171 39.116753 -104.281566 68.988626 96.225918 0.000000 0.000000 0.000000 
0.334157 80.303421 -0.828465 0.000000 0.000000 0.000000 -12.536331 4.303447 0.380396 -33.352907 -6.033109 16.497222 72.127925 -1.938062 0.224085 -25.366657 -1.929657 -14.517997 0.000000 0.000000 0.000000 -12.536331 4.303447 0.380396 -26.248197 -4.901923 -21.269662 73.061810 1.617572 -0.324425 -32.433129 -3.929788 13.432567 0.000000 0.000000 0.000000 -12.536331 4.303447 0.380396 0.000000 0.000000 0.000000 23.209949 -0.027564 0.788090 12.703021 -0.226609 0.772104 0.000000 0.000000 0.000000 12.703646 -0.233558 0.766655 2.574856 -0.210713 -0.343554 0.000000 0.000000 0.000000 12.703646 -0.233558 0.766655 1.104430 -19.890669 -10.278945 -21.196859 -2.412174 -57.702019 -130.960340 -81.096250 -125.841441 0.000000 0.000000 0.000000 12.703646 -0.233558 0.766655 4.503887 5.478727 25.672287 -14.594897 29.842118 39.506145 -105.759079 71.476810 96.313324 0.000000 0.000000 0.000000 
0.175746 80.922195 -0.323879 0.000000 0.000000 0.000000 -13.166492 4.216633 0.399994 -31.178253 -5.794245 16.681016 70.592040 -1.928973 0.217163 -25.362456 -1.728945 -14.674568 0.000000 0.000000 0.000000 -13.166492 4.216633 0.399994 -24.245452 -5.329244 -20.821548 71.500490 1.590965 -0.312915 -32.329614 -4.097349 13.256037 0.000000 0.000000 0.000000 -13.166492 4.216633 0.399994 0.000000 0.000000 0.000000 22.904889 -0.067810 0.709635 12.195143 -0.281553 0.670983 0.000000 0.000000 0.000000 12.195633 -0.290508 0.666839 2.094565 -0.238866 -0.350750 0.000000 0.000000 0.000000 12.195633 -0.290508 0.666839 1.067494 -19.566469 -10.690707 -18.296509 -4.238711 -56.730496 -125.598559 -81.931869 -119.149331 0.000000 0.000000 0.000000 12.195633 -0.290508 0.666839 4.572038 5.202212 25.784063 -11.288747 30.124618 39.155781 -102.578076 73.922086 91.818807 0.000000 0.000000 0.000000 
